<svg id="Layer_1" data-name="Layer 1" xmlns="http://www.w3.org/2000/svg" viewBox="0 0 600.08 136.58"><defs><style>.cls-1{fill:#c51f30;}.cls-2{fill:#a7a9ac;}</style></defs><path class="cls-1" d="M37.1,54.72H4.4V24.28H19.58V42.17H37.1c8.4,0,14.46-4.67,14.46-11.68s-6.28-11.9-14.46-11.9H4.4L14,5.89H37.1c17.08,0,29.42,9.85,29.42,23.94S54,54.72,37.1,54.72Z"/><path class="cls-1" d="M88.06,54.72l9.12-12.55h12.27c2.92,0,6.35,0,8.68.14-1.31-1.75-3.36-4.74-5-7.08l-8.76-12.92L81.49,54.72H63.6L94.92,10.56c2-2.85,5-5.48,9.78-5.48,4.53,0,7.52,2.41,9.64,5.48l30.51,44.16Z"/><path class="cls-1" d="M195.29,5.89l-9.78,12.7H168.06V54.72H153V18.59H130l9.78-12.7Z"/><path class="cls-1" d="M205.15,54.72l9.12-12.55h12.27c2.92,0,6.35,0,8.68.14-1.31-1.75-3.35-4.74-5-7.08L221.5,22.31,198.58,54.72H180.69L212,10.56c2-2.85,5-5.48,9.78-5.48,4.53,0,7.52,2.41,9.64,5.48l30.51,44.16Z"/><path class="cls-1" d="M312.6,25.38c11.9,0,18.33,4.45,18.33,13.36,0,10-6.06,16-20.95,16H264.5l9.71-12.55h36.93c3.58,0,5.19-1,5.19-3.58s-1.61-3.5-5.19-3.5H284.57c-12.55,0-18.32-5.63-18.32-14,0-9.2,6.13-15.18,20.95-15.18h42.41l-9.71,12.7H286c-3.5,0-5.18.87-5.18,3.36s1.68,3.43,5.18,3.43Z"/><path class="cls-1" d="M378.08,42.24H352.53V54.72h-15v-25h42c4.68,0,7.38-2.27,7.38-5.62s-2.7-5.55-7.38-5.55h-42l10-12.7h30.66c15.11,0,23.94,7.44,23.94,18.32S393.27,42.24,378.08,42.24Z"/><path class="cls-1" d="M418.89,54.72,428,42.17h12.26c2.92,0,6.35,0,8.69.14-1.32-1.75-3.36-4.74-5-7.08l-8.76-12.92L412.32,54.72H394.44l31.31-44.16c2.05-2.85,5-5.48,9.78-5.48,4.53,0,7.52,2.41,9.64,5.48l30.51,44.16Z"/><path class="cls-1" d="M535.69,42.17,526,54.72H501.45C484.52,54.72,472,44,472,29.83S484.52,5.89,501.45,5.89h34.24L526,18.59H501.45c-8.17,0-14.3,4.89-14.3,11.9s6.06,11.68,14.3,11.68Z"/><path class="cls-1" d="M597.67,42.17,588,54.72H541V5.89h56.57l-9.78,12.7H556.13v5.84h38.69l-8.69,11.09h-30v6.65Z"/><path class="cls-2" d="M11.37,119.72v12.86H5V114.41H33.21c7.49,0,13.57-2.13,13.57-7.85,0-6.14-5.55-8-13.63-8H4.88l4.25-5.43H35.39c10.86,0,17.76,5.07,17.76,13.51s-6.85,13.1-17.76,13.1Z"/><path class="cls-2" d="M100.23,93.11h6.43v22.24c0,11.92-7.67,17.88-22.89,17.88-17.65,0-25.26-6-25.26-17.88V93.11h6.38v22.24c0,8.85,5.25,12.57,18.88,12.57s16.46-3.72,16.46-12.57Z"/><path class="cls-2" d="M113.21,132.58V110.39h33.16c3.95,0,6.43-2.3,6.43-5.72,0-4.07-2.77-6.13-7.2-6.13H113.38l4.37-5.43h27.61c8.38,0,13.52,3.71,13.52,10.68a8.66,8.66,0,0,1-6.14,8.49,9.31,9.31,0,0,1,6.9,9.39c0,6.07-3.66,10.91-14.33,10.91Zm6.37-17.46v12.09h25.78c5.55,0,7.91-2.71,7.91-6,0-3.66-2.24-6.13-6.79-6.13Z"/><path class="cls-2" d="M165.54,132.58V93.11h6.37v34.1h32.93l-4.19,5.37Z"/><path class="cls-2" d="M208.84,132.58V93.11h6.38v39.47Z"/><path class="cls-2" d="M220.29,132.58l4.19-5.37h31c6.07,0,9-2.12,9-6.25,0-5.2-4.3-5.84-11.68-5.84H236.87c-10,0-14.63-3.84-14.63-10.74,0-7.2,4.84-11.27,15.69-11.27h31.92l-4.13,5.43H237.46c-6,0-9,2.12-9,6.25,0,5,4.19,5.6,11.69,5.6h15.93c9.61,0,14.57,3.49,14.57,10.63,0,7.55-4.78,11.56-15.64,11.56Z"/><path class="cls-2" d="M312.57,132.58V114.82H282.24v17.76h-6.37V93.11h6.37v16.28h30.33V93.11h6.37v39.47Z"/><path class="cls-2" d="M326.19,132.58V93.11h6.38v39.47Z"/><path class="cls-2" d="M345.49,101.43v31.15H339.7v-36c0-2.83,1.66-4,3.54-4A3.74,3.74,0,0,1,346,93.81l31.68,30.33v-31h5.85v35.81c0,2.84-1.72,4-3.6,4a3.56,3.56,0,0,1-2.72-1.18Z"/><path class="cls-2" d="M411.92,132.58c-13.1,0-22.72-8.67-22.72-20.12s9.62-19.35,22.72-19.35h25.37l-4.13,5.43H411.92c-9.38,0-16.34,5.48-16.34,14.22s6.9,14.45,16.34,14.45h17.47V114.76h-23l3.89-4.84h25.49v22.66Z"/><path class="cls-2" d="M464.31,132.58V93.11h6.37v34.1h32.93l-4.19,5.37Z"/><path class="cls-2" d="M507.5,132.58V93.11h6.37v34.1H546.8l-4.19,5.37Z"/><path class="cls-2" d="M572.22,132.58c-13.1,0-22.71-8.67-22.71-20.12s9.61-19.35,22.71-19.35h25L593,98.54H572.22c-7.73,0-16.34,4.36-16.34,14.22s8.67,14.45,19.82,14.45h21.48L593,132.58Z"/></svg>