<?xml version="1.0" standalone="no"?>
<!DOCTYPE svg PUBLIC "-//W3C//DTD SVG 20010904//EN"
 "http://www.w3.org/TR/2001/REC-SVG-20010904/DTD/svg10.dtd">
<svg version="1.0" xmlns="http://www.w3.org/2000/svg"
 width="700.000000pt" height="700.000000pt" viewBox="0 0 700.000000 700.000000"
 preserveAspectRatio="xMidYMid meet">
<metadata>
Created by potrace 1.11, written by Peter Selinger 2001-2013
</metadata>
<g transform="translate(0.000000,700.000000) scale(0.100000,-0.100000)"
fill="#000000" stroke="none">
<path d="M2169 5260 c-9 -8 -39 -44 -66 -80 -27 -36 -127 -168 -223 -295 -197
-260 -182 -240 -213 -280 -66 -83 -157 -208 -154 -211 1 -2 549 -5 1217 -6
l1215 -3 103 -23 c465 -105 745 -412 743 -816 -1 -191 -74 -369 -206 -501 -44
-44 -89 -87 -100 -95 -26 -20 -141 -90 -148 -90 -2 0 -25 -9 -51 -20 -25 -12
-48 -21 -51 -21 -2 0 -24 -6 -47 -15 -62 -22 -164 -44 -238 -51 -36 -4 -362
-7 -725 -8 l-660 0 -1 617 c0 340 -3 620 -7 624 -5 5 -758 9 -1008 5 l-46 -1
0 -1060 0 -1060 26 -1 c14 0 553 0 1196 0 1057 -1 1304 2 1376 16 13 3 41 7
64 10 139 19 364 76 485 122 332 127 597 311 819 567 58 67 155 218 205 321
40 81 110 266 114 298 0 4 6 31 11 60 6 28 13 63 16 77 27 142 26 377 -4 551
-88 515 -471 964 -1021 1194 -165 69 -436 142 -595 160 -27 3 -57 8 -65 10
-52 14 -314 18 -1079 19 -756 1 -867 -1 -882 -14z"/>
</g>
</svg>
